<?xml version="1.0" encoding="iso-8859-1"?>
<!-- Uploaded to: SVG Repo, www.svgrepo.com, Generator: SVG Repo Mixer Tools -->
<!DOCTYPE svg PUBLIC "-//W3C//DTD SVG 1.1//EN" "http://www.w3.org/Graphics/SVG/1.1/DTD/svg11.dtd">
<svg fill="#000000" version="1.1" id="Capa_1" xmlns="http://www.w3.org/2000/svg" xmlns:xlink="http://www.w3.org/1999/xlink" 
	 width="800px" height="800px" viewBox="0 0 925.201 925.2"
	 xml:space="preserve">
<g>
	<path d="M296.55,837v28.399h-56.1c-16.5,0-29.9,13.4-29.9,29.9s13.4,29.9,29.9,29.9h444.3c16.5,0,29.899-13.4,29.899-29.9
		s-13.399-29.9-29.899-29.9h-58.2V837H296.55z"/>
	<path d="M714.55,50c0-27.6-22.4-50-50-50h-404c-27.6,0-50,22.4-50,50v697c0,27.6,22.4,50,50,50h404c27.6,0,50-22.4,50-50V50z
		 M461.55,89.1c71.3,0,129,57.8,129,129c0,71.3-57.8,129-129,129s-129-57.8-129-129C332.55,146.8,390.25,89.1,461.55,89.1z"/>
</g>
</svg>